# xmcd CD database file
#
# Track frame offsets:
#	150
#	16811
#	29475
#	39977
#	52850
#	66495
#	87380
#	103266
#	122622
#	139042
#	157635
#
# Disc length: 2458 seconds
#
# Revision: 1
# Processed by: cddbd v1.5.2PL0 Copyright (c) Steve Scherf et al.
# Submitted via: CDex 1.51
#
DISCID=8609980b
DTITLE=Dolinaci - Country musica
DYEAR=2008
DGENRE=Country
TTITLE0=Dolinaci - Parta z rance Y
TTITLE1=Dolinaci - Tak malo, malo je lasky
TTITLE2=Dolinaci - Rovnou, jo tady rovnou
TTITLE3=Dolinaci - Evelyne
TTITLE4=Dolinaci - Kdyz Sever valcil s Jihem
TTITLE5=Dolinaci - Franky Dlouhan
TTITLE6=Dolinaci - Folsom prison blues
TTITLE7=Dolinaci - Nakladak
TTITLE8=Dolinaci - Co se dal bude dit
TTITLE9=Dolinaci - Bajecna zenska
TTITLE10=Dolinaci - Klep klep na branu nebeskou
EXTD=YEAR: 2008
EXTT0=
EXTT1=
EXTT2=
EXTT3=
EXTT4=
EXTT5=
EXTT6=
EXTT7=
EXTT8=
EXTT9=
EXTT10=
PLAYORDER=
